<svg width="127" height="158" viewBox="0 0 127 158" fill="none" xmlns="http://www.w3.org/2000/svg">
<g clip-path="url(#clip0_160_23)">
<path d="M126.14 108.82C124.7 104.88 121.49 102.91 119.96 102.1C113.46 98.63 106.17 100.53 103.79 101.52C102.92 102.57 101.17 105.05 100.25 106.59L99.3899 106.07C100.15 104.81 101.71 102.53 102.43 101.6C103.07 100.25 103.66 98.92 104.22 97.61C104.83 96.01 105.62 93.96 106.51 91.58C107.71 88.39 108.65 85.91 109.42 83.82C109.44 83.77 109.45 83.73 109.47 83.68C110.32 81.15 111.1 78.69 111.85 76.31C112.76 73.42 113.74 70.13 114.74 66.45C115.11 64.88 115.49 63.21 115.92 61.34C117.78 53.23 118.71 49.18 119.4 44.02C120.34 36.88 122.11 22.16 116.53 10.53C115.32 7.98999 112.97 4.41999 109.2 1.99999C106.56 0.309988 103.08 -1.16583e-05 103.08 -1.16583e-05C101.59 -0.0400117 99.2699 0.0199883 96.5899 0.739988C86.7399 3.41999 81.3499 12.59 77.1599 19.74C75.2399 23.02 72.7199 27.91 70.6799 34.33C72.2099 26.16 67.3299 19.28 61.6899 18.41C58.1799 17.88 54.4499 19.7 51.7699 22.78L51.6999 22.85C50.1899 24.77 48.6899 27.05 47.2999 29.73L46.3599 29.24C48.1599 25.77 50.1299 22.97 52.0599 20.73C53.1399 15.87 52.0299 10.88 48.8799 7.36999C48.2499 6.65999 44.0599 2.14999 37.8399 2.80999C32.7699 3.33999 28.3499 7.07999 26.6399 12.38L43.2799 21.95L27.6699 80.42L38.7199 80.57L51.9799 36.98C52.0899 36.59 53.0999 34.25 55.5699 33.14C56.0299 32.94 57.6499 32.27 59.5499 32.77C59.5499 32.77 61.1599 33.2 62.4899 34.62C66.7499 39.15 64.0499 53.03 64.0499 53.03C62.8599 59.54 60.3299 69.92 56.2599 80.29H69.2199L85.6999 30.34C85.7299 30.28 85.7599 30.18 85.7999 30.07C86.6499 27.93 89.7199 20.17 95.2499 18.69C95.2799 18.68 95.3199 18.67 95.3799 18.66C95.3799 18.66 98.5999 17.41 101.72 19.51C104.55 21.42 106.27 30.21 103.92 42.77C102.49 53 99.9699 64.31 95.7199 76.17C95.6299 76.43 95.5199 76.74 95.3999 77.1C95.3599 77.21 95.3199 77.32 95.2799 77.43C94.0299 81.02 91.2699 88.5 87.2999 96.66C87.0599 96.56 86.8299 96.46 86.5999 96.37C83.6399 95.27 81.4099 94.52 80.5799 94.29C80.1699 94.18 79.7399 94.06 79.7399 94.06C79.2699 93.94 78.7699 93.81 78.2499 93.68C77.5199 93.5 76.7999 93.33 76.0999 93.17C75.7899 93.1 75.4799 93.03 75.1799 92.96C74.5699 92.83 73.9799 92.7 73.4199 92.58C72.9999 92.5 72.5899 92.42 72.1799 92.34C71.9199 92.29 71.6099 92.24 71.2099 92.17C71.0999 92.15 70.6199 92.07 69.9499 91.98C69.9499 91.98 69.3999 91.91 68.8699 91.84C58.4399 90.57 40.0899 91.03 21.5799 100.87C14.5799 104.59 8.26991 109.86 3.13991 119.17C1.83991 121.98 -1.84009 129.97 1.13991 138.91C4.02991 147.59 11.5899 151.88 13.7699 153.03C30.7799 161.98 51.5899 153.15 51.5899 153.15C58.6599 150.69 66.5799 147.17 78.3699 136.27C86.3199 128.92 91.3599 121.36 95.0699 115.36C95.3499 114.9 95.6299 114.44 95.8999 113.98C96.7599 112.53 97.5799 111.11 98.3499 109.7C98.3799 109.71 98.3999 109.73 98.4299 109.75V109.73C99.8799 110.16 101.47 110.54 103.31 111.13C105.87 112.02 108.75 113.29 111.76 115.14C116.06 117.8 120.18 120.76 122.26 123.07C123.22 122.14 125.53 119.74 126.4 116.1C126.69 114.87 127.33 112.04 126.15 108.81L126.14 108.82ZM81.7399 107.16C81.3699 107.72 80.9599 108.29 80.5399 108.87C80.5299 108.89 80.5099 108.92 80.4899 108.94C78.6199 111.89 76.5999 114.71 74.4499 117.23C73.2599 118.78 71.9799 120.33 70.5999 121.8C65.5099 127.18 59.4499 131.14 50.7699 136C50.7699 136 33.4399 143.67 22.4499 139.73C18.5399 138.33 15.9699 135.62 15.2099 132.4C14.5099 129.41 15.6999 126.82 16.6099 124.9C20.0699 117.58 29.0599 113.03 33.6499 110.89C35.8699 109.86 37.5099 109.29 39.8399 108.5C52.4299 104.2 62.6999 103.9 68.8699 104.19C69.9099 104.24 70.8399 104.3 71.6299 104.37C74.9599 104.63 78.2099 105.23 78.2099 105.23C79.8299 105.53 81.1599 105.84 82.2299 106.11L81.7399 107.16V107.16Z" fill="#C38224"/>
</g>
<defs>
<clipPath id="clip0_160_23">
<rect width="126.83" height="157.05" fill="white"/>
</clipPath>
</defs>
</svg>
