<svg width="127" height="158" viewBox="0 0 127 158" fill="none" xmlns="http://www.w3.org/2000/svg">
<g clip-path="url(#clip0_164_27)">
<path d="M126.24 108.5C124.93 104.31 120.81 101.03 119.31 100.12C113.98 96.89 108.65 98.34 105.64 99.46C103.7 101.28 101.75 103.58 100.95 105.99L99.9999 105.68C100.79 103.28 102.58 101.03 104.43 99.21L111.79 77.11C112.74 73.98 113.97 69.68 115.2 64.51C116.32 59.81 118 52.63 119 44.01C120.11 34.41 121.51 20.97 116.54 10.53C115.33 7.98999 112.98 4.41999 109.21 1.99999C106.56 0.309985 103.08 -1.46618e-05 103.08 -1.46618e-05C101.59 -0.0400147 99.2699 0.00998533 96.5899 0.739985C86.7399 3.40999 81.3499 12.59 77.1599 19.74C75.2399 23.02 72.7199 27.91 70.6799 34.32C72.2099 26.15 67.3299 19.28 61.6899 18.41C58.1799 17.88 54.4499 19.7 51.7699 22.77C51.7499 22.79 51.7199 22.83 51.6999 22.85C50.1899 24.77 48.6899 27.04 47.2999 29.73L46.3599 29.24C48.1599 25.76 50.1299 22.96 52.0599 20.72C53.1399 15.86 52.0299 10.87 48.8799 7.36999C48.2499 6.65999 44.0599 2.14999 37.8399 2.79999C32.7699 3.33999 28.3499 7.07999 26.6399 12.38L43.2799 21.95L27.6699 80.42L38.7199 80.56L51.9799 36.98C52.0899 36.58 53.0999 34.25 55.5699 33.14C56.0199 32.94 57.6499 32.26 59.5499 32.77C59.5499 32.77 61.1599 33.19 62.4899 34.62C66.7499 39.14 64.0499 53.03 64.0499 53.03C62.8599 59.54 60.3299 69.91 56.2599 80.29H69.2199L85.6999 30.34C85.7299 30.28 85.7599 30.18 85.7999 30.06C86.6499 27.93 89.7199 20.16 95.2499 18.68C95.2799 18.67 95.3199 18.66 95.3799 18.65C95.3799 18.65 98.5999 17.41 101.72 19.51C104.55 21.42 106.27 30.2 103.92 42.77C101.69 54.67 99.1899 64.19 97.5699 69.01C95.9799 73.76 93.6799 79.83 92.8799 81.93C91.0399 86.79 89.4199 90.82 88.2599 93.67C87.7999 93.58 87.3399 93.49 86.8699 93.4C86.6999 93.37 86.5399 93.33 86.3799 93.3C86.1999 93.27 86.0299 93.24 85.8499 93.2C83.1199 92.67 79.5399 92.09 75.3499 91.72C74.7199 91.66 74.0799 91.61 73.4199 91.56C64.6399 90.94 43.1999 89.38 21.5799 100.87C14.5799 104.58 8.26991 109.85 3.13991 119.17C1.83991 121.98 -1.84009 129.96 1.13991 138.91C4.02991 147.59 11.5899 151.88 13.7699 153.02C30.7799 161.97 51.5899 153.15 51.5899 153.15C58.6599 150.69 66.5799 147.17 78.3699 136.26C80.6199 134.18 82.6399 132.08 84.4599 130.01C89.0399 124.42 92.3299 119.51 94.4899 116.06C96.0699 113.53 97.5099 111.05 98.8299 108.6C100.19 109.06 101.66 109.5 103.35 110.13C105.88 111.16 108.71 112.59 111.66 114.64C115.87 117.59 119.89 120.85 121.89 123.35C122.88 122.4 125.27 119.96 126.26 116.16C126.59 114.88 127.32 111.93 126.26 108.49L126.24 108.5ZM78.7799 112.16C77.0799 114.56 75.4599 116.55 74.1199 118.08C73.9399 118.28 73.7699 118.48 73.6099 118.67C73.4299 118.87 73.2599 119.05 73.0999 119.23C72.8899 119.46 72.6899 119.68 72.4999 119.88C71.8799 120.55 71.2499 121.19 70.6099 121.79C65.2299 126.89 59.4599 131.14 50.7799 136C50.7799 136 33.4499 143.67 22.4599 139.73C18.5499 138.32 15.9799 135.62 15.2199 132.4C14.5199 129.4 15.7099 126.82 16.6199 124.89C20.0799 117.58 29.0699 113.02 33.6599 110.89C35.8799 109.86 37.5199 109.29 39.8499 108.5C54.4199 103.51 65.8999 103.9 71.4899 104.35C71.5399 104.35 71.5899 104.35 71.6399 104.35C72.2699 104.4 72.8899 104.46 73.4899 104.53C73.7799 104.56 74.0699 104.6 74.3599 104.64C76.5399 104.91 78.2199 105.22 78.2199 105.22C79.5799 105.47 80.7099 105.73 81.6799 105.96H81.6699C81.9399 106.03 82.2099 106.09 82.4799 106.16C81.0099 108.89 79.8399 110.67 78.7799 112.15V112.16Z" fill="#3D3C2B"/>
</g>
<defs>
<clipPath id="clip0_164_27">
<rect width="126.8" height="157.04" fill="white"/>
</clipPath>
</defs>
</svg>
