<svg width="127" height="158" viewBox="0 0 127 158" fill="none" xmlns="http://www.w3.org/2000/svg">
<g clip-path="url(#clip0_162_25)">
<path d="M100.3 105.78L99.9999 105.68C100.49 104.18 101.38 102.73 102.43 101.42C106.47 92.78 109.23 84.67 111.79 77.11C113.7 71.49 114.6 68.19 114.84 67.29C117.24 58.24 118.12 50.73 119 44.01C119.6 39.54 121.82 21.6 116.54 10.53C115.33 7.98999 112.98 4.41999 109.21 1.99999C106.56 0.309985 103.08 -1.46618e-05 103.08 -1.46618e-05C101.59 -0.0400147 99.2699 0.00998533 96.5899 0.739985C86.7399 3.40999 81.3499 12.59 77.1599 19.74C75.2399 23.02 72.7199 27.91 70.6799 34.32C72.2099 26.15 67.3299 19.28 61.6899 18.41C58.1799 17.88 54.4499 19.7 51.7699 22.77C51.7499 22.79 51.7199 22.83 51.6999 22.85C50.1899 24.77 48.6899 27.04 47.2999 29.73L46.3599 29.24C48.1599 25.76 50.1299 22.96 52.0599 20.72C53.1399 15.86 52.0299 10.87 48.8799 7.36999C48.2499 6.65999 44.0599 2.14999 37.8399 2.79999C32.7699 3.33999 28.3499 7.07999 26.6399 12.38L43.2799 21.95L27.6699 80.42L38.7199 80.56L51.9799 36.98C52.0899 36.58 53.0999 34.25 55.5699 33.14C56.0199 32.94 57.6499 32.26 59.5499 32.77C59.5499 32.77 61.1599 33.19 62.4899 34.62C66.7499 39.14 64.0499 53.03 64.0499 53.03C62.8599 59.54 60.3299 69.91 56.2599 80.29H69.2199L85.6999 30.34C85.7299 30.28 85.7599 30.18 85.7999 30.06C86.6499 27.93 89.7199 20.16 95.2499 18.68C95.2799 18.67 95.3199 18.66 95.3799 18.65C95.3799 18.65 98.5999 17.41 101.72 19.51C104.55 21.42 106.27 30.2 103.92 42.77C103.92 42.77 100.8 65.59 90.4699 86.77C89.3599 89.06 88.1699 91.18 88.1699 91.18C87.9099 91.69 87.2799 92.83 86.9199 93.32C86.9199 93.35 86.8899 93.37 86.8699 93.4C83.6499 92.75 79.0199 91.96 73.4199 91.56C64.6399 90.94 43.1999 89.38 21.5799 100.87C14.5799 104.58 8.26991 109.85 3.13991 119.17C1.83991 121.98 -1.84009 129.96 1.13991 138.91C4.02991 147.59 11.5899 151.88 13.7699 153.02C30.7799 161.97 51.5899 153.15 51.5899 153.15C58.6599 150.69 66.5799 147.17 78.3699 136.26C80.6199 134.18 82.6399 132.08 84.4599 130.01C89.0399 124.42 92.3299 119.51 94.4899 116.06C96.0699 113.53 97.5099 111.05 98.8299 108.6C100.19 109.06 101.66 109.5 103.35 110.13C105.88 111.16 108.71 112.59 111.66 114.64C115.87 117.59 119.89 120.85 121.89 123.35C122.88 122.4 125.27 119.96 126.26 116.16C126.59 114.88 127.32 111.93 126.25 108.49C124.94 104.3 120.82 101.02 119.32 100.11C113.99 96.88 108.66 98.33 105.65 99.45C103.71 101.27 101.76 103.57 100.96 105.98L100.33 105.78H100.3ZM80.0599 109.53C78.0899 113.21 74.4599 118.16 70.6199 121.78C65.2399 126.88 59.4699 131.13 50.7899 135.99C50.7899 135.99 33.4599 143.66 22.4699 139.72C18.5599 138.31 15.9899 135.61 15.2299 132.39C14.5299 129.39 15.7199 126.81 16.6299 124.88C20.0899 117.57 29.0799 113.01 33.6699 110.88C35.8899 109.85 37.5299 109.28 39.8599 108.49C54.5599 103.45 66.1199 103.9 71.6499 104.35C74.9799 104.62 78.2299 105.22 78.2299 105.22C79.5899 105.47 80.7199 105.73 81.6899 105.96C81.2699 106.87 80.3699 108.94 80.0599 109.53V109.53Z" fill="#C38224"/>
</g>
<defs>
<clipPath id="clip0_162_25">
<rect width="126.8" height="157.04" fill="white"/>
</clipPath>
</defs>
</svg>
