<svg width="126" height="158" viewBox="0 0 126 158" fill="none" xmlns="http://www.w3.org/2000/svg">
<g clip-path="url(#clip0_148_116)">
<path d="M123.79 112.36C117.57 102.49 105.17 98.73 103.25 98.21C105.27 93.75 107.04 89.95 108.07 87.19C110.53 80.68 111.13 79.04 111.78 77.11C113.15 73.08 114.25 69.49 114.83 67.29C117.23 58.23 118.11 50.73 118.99 44.01C119.58 39.54 121.8 21.6 116.53 10.52C115.31 7.98 112.97 4.41 109.2 1.99C106.55 0.309995 103.08 0.0099951 103.08 0.0099951C101.59 -0.0300049 99.2599 0.0199951 96.5899 0.749995C86.7399 3.42 81.3499 12.6 77.1599 19.75C75.2399 23.03 72.7199 27.92 70.6799 34.33C72.2099 26.16 67.3299 19.28 61.6899 18.42C58.1799 17.89 54.4499 19.71 51.7699 22.78C51.7499 22.8 51.7299 22.83 51.7099 22.85C50.1999 24.77 48.6999 27.05 47.2999 29.73L46.3599 29.24C48.1699 25.76 50.1299 22.96 52.0699 20.72C53.1499 15.86 52.0399 10.87 48.8899 7.36C48.2599 6.65 44.0699 2.13999 37.8499 2.79999C32.7799 3.33999 28.3599 7.08 26.6499 12.37L43.2899 21.94L27.6799 80.41L38.7199 80.56L51.9799 36.97C52.0999 36.58 53.0999 34.24 55.5699 33.13C56.0199 32.93 57.6499 32.25 59.5499 32.76C59.5499 32.76 61.1599 33.18 62.4899 34.61C66.7499 39.13 64.0399 53.02 64.0399 53.02C62.8599 59.53 60.3199 69.91 56.2499 80.28H69.2199L85.6899 30.33C85.7199 30.27 85.7499 30.17 85.7999 30.06C86.6499 27.93 89.7199 20.16 95.2499 18.68C95.2799 18.67 95.3199 18.66 95.3799 18.65C95.3799 18.65 98.5999 17.4 101.72 19.51C104.55 21.42 106.27 30.2 103.92 42.77C103.92 42.77 100.8 65.6 90.4799 86.77C89.3699 89.06 88.1799 91.19 88.1799 91.19C87.9199 91.7 87.2899 92.84 86.9299 93.33C86.9099 93.36 86.8899 93.38 86.8699 93.41C83.6499 92.76 79.0299 91.97 73.4199 91.57C64.6399 90.95 43.1999 89.38 21.5799 100.87C14.5799 104.59 8.26991 109.85 3.13991 119.17C1.83991 121.98 -1.84009 129.96 1.13991 138.91C4.02991 147.59 11.5899 151.88 13.7699 153.03C30.7799 161.98 51.5899 153.15 51.5899 153.15C58.6599 150.69 66.5799 147.17 78.3699 136.27C88.6999 126.71 94.1299 116.79 98.0899 110.4C98.0899 110.38 98.1099 110.38 98.1199 110.36C103.36 112.29 110.02 115.42 114.85 120.04V120.02C117.52 122.59 119.38 125.07 120.7 127.06C121.77 126.15 124.08 124.6 124.93 121.52C126.02 117.58 124.9 114.09 123.8 112.35L123.79 112.36ZM88.1999 108.89C85.5699 108.01 84.0599 107.67 81.7499 107.16C81.2199 107.94 80.6499 108.75 80.0499 109.55C77.5499 112.9 74.4499 118.18 70.5999 121.8C65.2199 126.89 59.4499 131.14 50.7799 136.01C50.7799 136.01 33.4499 143.68 22.4599 139.74C18.5499 138.33 15.9699 135.63 15.2199 132.41C14.5199 129.42 15.7099 126.84 16.6199 124.91C20.0799 117.59 29.0699 113.04 33.6599 110.91C35.8799 109.88 37.5199 109.31 39.8399 108.52C54.5499 103.49 66.0999 103.94 71.6399 104.39C74.9699 104.66 78.2099 105.26 78.2099 105.26C80.3799 105.66 82.0399 106.08 83.2499 106.39C85.3599 106.93 87.1499 107.47 88.5399 107.91L88.1999 108.91V108.89Z" fill="#B98348"/>
</g>
<defs>
<clipPath id="clip0_148_116">
<rect width="125.37" height="157.04" fill="white"/>
</clipPath>
</defs>
</svg>
